<?xml version="1.0" encoding="UTF-8" standalone="no"?><!DOCTYPE svg PUBLIC "-//W3C//DTD SVG 1.1//EN" "http://www.w3.org/Graphics/SVG/1.1/DTD/svg11.dtd"><svg width="100%" height="100%" viewBox="0 0 236 48" version="1.1" xmlns="http://www.w3.org/2000/svg" xmlns:xlink="http://www.w3.org/1999/xlink" xml:space="preserve" xmlns:serif="http://www.serif.com/" style="fill-rule:evenodd;clip-rule:evenodd;stroke-linejoin:round;stroke-miterlimit:1.41421;"><rect id="simrecord" x="0" y="0" width="235.2" height="48" style="fill:none;"/><clipPath id="_clip1"><rect x="0" y="0" width="235.2" height="48"/></clipPath><g clip-path="url(#_clip1)"><rect id="gradient" x="0" y="0" width="235.2" height="48" style="fill:url(#_Linear2);"/><g><path d="M95.394,22.731c-1.116,-0.366 -1.638,-0.462 -2.616,-0.462c-1.662,0 -2.616,0.72 -2.616,2.028c0,1.104 0.66,1.692 2.13,1.92l0.234,0.036c0.66,0.102 0.906,0.138 0.906,0.33c0,0.174 -0.15,0.252 -0.618,0.252c-0.768,0 -1.494,-0.18 -2.154,-0.54l-0.684,1.668c0.6,0.36 1.644,0.57 2.826,0.57c1.74,0 2.766,-0.774 2.766,-2.148c0,-0.99 -0.63,-1.614 -1.896,-1.824l-0.36,-0.06c-0.54,-0.09 -0.948,-0.102 -0.948,-0.318c0,-0.138 0.102,-0.222 0.516,-0.222c0.546,0 1.326,0.186 2.004,0.438l0.51,-1.668Z" style="fill:#fff;fill-rule:nonzero;"/><path d="M98.49,22.431l-2.136,0l0,5.946l2.136,0l0,-5.946Zm-1.074,-2.964c-0.69,0 -1.224,0.534 -1.224,1.224c0,0.69 0.534,1.224 1.224,1.224c0.69,0 1.224,-0.534 1.224,-1.224c0,-0.69 -0.534,-1.224 -1.224,-1.224Z" style="fill:#fff;fill-rule:nonzero;"/><path d="M106.71,22.269c-0.816,0 -1.41,0.306 -1.77,0.918c-0.372,-0.582 -1.002,-0.918 -1.764,-0.918c-0.744,0 -1.272,0.258 -1.608,0.774l0,-0.612l-2.034,0l0,5.946l2.136,0l0,-3.186c0,-0.654 0.33,-0.924 0.744,-0.924c0.468,0 0.75,0.318 0.75,0.912l0,3.198l2.136,0l0,-3.186c0,-0.654 0.33,-0.924 0.744,-0.924c0.468,0 0.75,0.318 0.75,0.912l0,3.198l2.136,0l0,-3.87c0,-1.368 -0.846,-2.238 -2.22,-2.238Z" style="fill:#fff;fill-rule:nonzero;"/><path d="M113.562,22.269c-0.726,0 -1.248,0.234 -1.578,0.762l0,-0.6l-2.04,0l0,5.946l2.142,0l0,-3.186c0,-0.654 0.36,-0.864 0.954,-0.864c0.342,0 0.69,0.072 0.936,0.138l0.12,-2.136c-0.084,-0.018 -0.3,-0.06 -0.534,-0.06Z" style="fill:#fff;fill-rule:nonzero;"/><path d="M117.474,22.269c-1.83,0 -3.09,1.302 -3.09,3.186c0,1.842 1.272,3.078 3.174,3.078c1.176,0 2.112,-0.408 2.688,-1.032l-1.464,-1.224c-0.324,0.318 -0.738,0.48 -1.122,0.48c-0.564,0 -0.924,-0.24 -1.068,-0.72l3.882,0c0.024,-0.12 0.042,-0.432 0.042,-0.636c-0.006,-1.86 -1.242,-3.132 -3.042,-3.132Zm0.012,1.794c0.444,0 0.744,0.222 0.9,0.684l-1.788,0c0.138,-0.462 0.432,-0.684 0.888,-0.684Z" style="fill:#fff;fill-rule:nonzero;"/><path d="M124.26,22.269c-1.902,0 -3.24,1.296 -3.24,3.132c0,1.836 1.338,3.132 3.24,3.132c1.188,0 2.094,-0.552 2.676,-1.428l-1.758,-1.122c-0.258,0.384 -0.582,0.564 -0.984,0.564c-0.522,0 -0.99,-0.396 -0.99,-1.146c0,-0.744 0.486,-1.146 1.008,-1.146c0.42,0 0.714,0.18 0.966,0.558l1.752,-1.104c-0.588,-0.888 -1.482,-1.44 -2.67,-1.44Z" style="fill:#fff;fill-rule:nonzero;"/><path d="M130.398,22.269c-1.866,0 -3.24,1.326 -3.24,3.132c0,1.806 1.374,3.132 3.24,3.132c1.866,0 3.24,-1.326 3.24,-3.132c0,-1.806 -1.374,-3.132 -3.24,-3.132Zm0,1.986c0.612,0 1.056,0.48 1.056,1.146c0,0.666 -0.444,1.146 -1.056,1.146c-0.612,0 -1.056,-0.48 -1.056,-1.146c0,-0.666 0.444,-1.146 1.056,-1.146Z" style="fill:#fff;fill-rule:nonzero;"/><path d="M138.03,22.269c-0.726,0 -1.248,0.234 -1.578,0.762l0,-0.6l-2.04,0l0,5.946l2.142,0l0,-3.186c0,-0.654 0.36,-0.864 0.954,-0.864c0.342,0 0.69,0.072 0.936,0.138l0.12,-2.136c-0.084,-0.018 -0.3,-0.06 -0.534,-0.06Z" style="fill:#fff;fill-rule:nonzero;"/><path d="M141.564,22.269c-1.596,0 -2.712,1.41 -2.712,3.126c0,1.728 1.116,3.138 2.706,3.138c0.75,0 1.266,-0.282 1.62,-0.678l0,0.522l2.046,0l0,-8.64l-2.136,0l0,3.126c-0.354,-0.354 -0.84,-0.594 -1.524,-0.594Zm0.546,1.986c0.612,0 1.056,0.48 1.056,1.146c0,0.666 -0.444,1.146 -1.056,1.146c-0.612,0 -1.056,-0.48 -1.056,-1.146c0,-0.666 0.444,-1.146 1.056,-1.146Z" style="fill:#fff;fill-rule:nonzero;"/></g></g><defs><linearGradient id="_Linear2" x1="0" y1="0" x2="1" y2="0" gradientUnits="userSpaceOnUse" gradientTransform="matrix(2.93915e-15,48,-48,2.93915e-15,117.6,0)"><stop offset="0" style="stop-color:#43a047;stop-opacity:1"/><stop offset="1" style="stop-color:#2e7d32;stop-opacity:1"/></linearGradient></defs></svg>